<?xml version="1.0" encoding="utf-8"?>
<!-- Generator: Adobe Illustrator 26.0.1, SVG Export Plug-In . SVG Version: 6.00 Build 0)  -->
<svg version="1.1" id="Capa_1" xmlns="http://www.w3.org/2000/svg" xmlns:xlink="http://www.w3.org/1999/xlink" x="0px" y="0px"
	 viewBox="0 0 141.7 35.3" style="enable-background:new 0 0 141.7 35.3;" xml:space="preserve">
<style type="text/css">
	.st0{fill:#279D2E;}
	.st1{fill:#25B4BD;}
	.st2{fill:#3C3C3B;}
</style>
<path class="st0" d="M111.3,21l10.3-6.5c2.3-1.4,4.6-0.3,4.6,2.2v7.6c0,0.8,0.6,1.4,1.4,1.4c0,0,0.1,0,0.1,0h2c6.4,0,12-4.6,12-12.5
	c0-8.1-6.4-13.3-13.9-13.3h-16c-1.2,0-2.1,1-2.1,2.1v18.2c0,0.6,0.5,1,1.1,0.9C110.9,21.3,111.1,21.2,111.3,21"/>
<path class="st1" d="M109.7,26.1v1.8c0.1,4.1,3.5,7.4,7.6,7.4h4.2c1.2,0.1,2.2-0.9,2.3-2.1c0-0.1,0-0.1,0-0.2V18.2
	c0-0.7-0.6-1.2-1.2-1.2c-0.3,0-0.5,0.1-0.7,0.2l-11.3,7.2C110,24.8,109.6,25.4,109.7,26.1"/>
<rect x="90.1" y="0" class="st2" width="1.1" height="35.3"/>
<path class="st2" d="M50.3,28.8l5-3.2c-0.8-0.4-1.4-0.9-1.8-1.7c-0.9-1.4-1.4-3.5-1.4-6.4s0.5-5,1.4-6.4c1.3-2.1,4.1-2.7,6.2-1.4
	c0.6,0.4,1,0.8,1.4,1.4c0.9,1.4,1.4,3.5,1.4,6.4c0,1.3-0.1,2.5-0.3,3.8l6.5-4.1c0-2.4-0.5-4.8-1.4-7c-2.4-5.4-8.8-7.9-14.2-5.5
	c-2.4,1.1-4.4,3-5.5,5.5c-1,2.3-1.5,4.8-1.5,7.3c-0.1,2.5,0.4,5,1.5,7.3C48,26.4,49,27.7,50.3,28.8"/>
<path class="st2" d="M15.9,20.1c1.4-1.2,2.6-2.6,3.5-4.3c0.6-1.2,0.9-2.6,0.9-4c0-1.5-0.4-2.9-1.2-4.1C18.2,6.5,17,5.5,15.6,5
	c-1.6-0.7-3.4-1-5.1-1c-2.1,0-4.3,0.4-6.2,1.3C2.5,6,1.1,7.3,0,8.8l4.4,2.9c0.6-0.9,1.4-1.5,2.3-2C7.8,9.2,8.8,9,9.9,9
	c1.1-0.1,2.2,0.2,3.1,0.9c0.7,0.6,1.1,1.5,1.1,2.4c0,0.8-0.2,1.5-0.6,2.2c-0.6,1-1.3,1.9-2.2,2.7L1.2,26.8v4h19.9v-5H9.8L15.9,20.1z
	"/>
<path class="st2" d="M39.1,5.6c-3.6-2.2-8.1-2.2-11.7,0c-1.8,1.1-3.1,2.8-4,4.7c-1,2.3-1.5,4.8-1.5,7.3c-0.1,2.5,0.4,5,1.5,7.3
	c0.9,1.9,2.2,3.5,4,4.7c5,3.2,11.7,1.8,14.9-3.2c0.3-0.5,0.6-1,0.8-1.5c1-2.3,1.5-4.8,1.5-7.3c0.1-2.5-0.4-5-1.5-7.3
	C42.3,8.3,40.9,6.7,39.1,5.6 M37,24c-1.3,2.1-4.1,2.7-6.2,1.4c-0.6-0.4-1-0.8-1.4-1.4c-0.9-1.4-1.4-3.5-1.4-6.4s0.5-5,1.4-6.4
	c1.3-2.1,4.1-2.7,6.2-1.4c0.6,0.4,1,0.8,1.4,1.4c0.9,1.4,1.4,3.5,1.4,6.4C38.4,20.5,38,22.6,37,24"/>
<path class="st0" d="M61.8,29.8h-2.5L58.8,31h-0.7l2.1-4.6h0.7L63,31h-0.7L61.8,29.8z M61.6,29.3l-1-2.3l-1,2.3H61.6z"/>
<path class="st0" d="M67.7,26.3V31h-0.5l-2.8-3.5V31h-0.7v-4.6h0.6l2.8,3.5v-3.5H67.7z M65.9,25.9c-0.1-0.1-0.2-0.1-0.3-0.2
	c-0.1-0.1-0.1-0.1-0.2-0.1c0,0-0.1,0-0.2,0c-0.1,0-0.2,0-0.2,0.1c-0.1,0.1-0.1,0.2-0.1,0.3h-0.4c0-0.2,0.1-0.4,0.2-0.6
	c0.1-0.1,0.3-0.2,0.5-0.2c0.1,0,0.2,0,0.3,0.1c0.1,0.1,0.2,0.1,0.3,0.2l0.2,0.1c0,0,0.1,0,0.1,0c0.1,0,0.2,0,0.2-0.1
	c0.1-0.1,0.1-0.2,0.1-0.3h0.4c0,0.2-0.1,0.4-0.2,0.6c-0.1,0.1-0.3,0.2-0.5,0.2C66.1,25.9,66,25.9,65.9,25.9"/>
<path class="st0" d="M69.9,30.7c-0.4-0.2-0.7-0.5-0.9-0.8c-0.2-0.4-0.3-0.8-0.3-1.2c0-0.9,0.4-1.7,1.2-2.1c0.8-0.4,1.7-0.4,2.5,0
	c0.4,0.2,0.7,0.5,0.9,0.8c0.2,0.4,0.3,0.8,0.3,1.2c0,0.4-0.1,0.8-0.3,1.2c-0.2,0.4-0.5,0.7-0.9,0.8C71.6,31.1,70.7,31.1,69.9,30.7
	 M72.1,30.2c0.3-0.2,0.5-0.4,0.6-0.6c0.2-0.3,0.2-0.6,0.2-0.9c0-0.3-0.1-0.6-0.2-0.9c-0.2-0.3-0.4-0.5-0.6-0.6
	c-0.3-0.2-0.6-0.2-0.9-0.2c-0.3,0-0.6,0.1-0.9,0.2c-0.3,0.1-0.5,0.4-0.6,0.6c-0.2,0.3-0.2,0.6-0.2,0.9c0,0.3,0.1,0.6,0.2,0.9
	c0.2,0.3,0.4,0.5,0.6,0.6c0.3,0.2,0.6,0.2,0.9,0.2C71.5,30.4,71.8,30.4,72.1,30.2"/>
<path class="st0" d="M75,30.9c-0.3-0.1-0.5-0.2-0.8-0.4l0.2-0.5c0.2,0.2,0.4,0.3,0.7,0.4c0.3,0.1,0.6,0.1,0.8,0.2
	c0.3,0,0.6,0,0.9-0.2c0.2-0.1,0.3-0.3,0.3-0.5c0-0.1-0.1-0.3-0.2-0.4c-0.1-0.1-0.2-0.2-0.4-0.2L75.9,29c-0.3-0.1-0.6-0.1-0.8-0.2
	c-0.2-0.1-0.4-0.2-0.6-0.4c-0.2-0.2-0.2-0.5-0.2-0.7c0-0.2,0.1-0.5,0.2-0.7c0.1-0.2,0.4-0.4,0.6-0.5c0.3-0.1,0.7-0.2,1-0.2
	c0.3,0,0.5,0,0.8,0.1c0.2,0.1,0.5,0.2,0.7,0.3l-0.2,0.5c-0.2-0.1-0.4-0.2-0.6-0.3c-0.2-0.1-0.4-0.1-0.7-0.1c-0.3,0-0.6,0.1-0.8,0.2
	c-0.2,0.1-0.3,0.3-0.3,0.5c0,0.1,0.1,0.3,0.2,0.4c0.1,0.1,0.2,0.2,0.4,0.2c0.2,0.1,0.4,0.1,0.6,0.2c0.3,0.1,0.6,0.1,0.8,0.2
	c0.2,0.1,0.4,0.2,0.6,0.4c0.2,0.2,0.2,0.4,0.2,0.7c0,0.5-0.3,1-0.8,1.1C76.7,31,76.3,31,76,31C75.7,31,75.3,31,75,30.9"/>
</svg>
